<?xml version="1.0" encoding="utf-8"?>
<!-- Generator: Adobe Illustrator 23.0.1, SVG Export Plug-In . SVG Version: 6.00 Build 0)  -->
<svg version="1.1" id="Layer_1" xmlns="http://www.w3.org/2000/svg" xmlns:xlink="http://www.w3.org/1999/xlink" x="0px" y="0px"
	 viewBox="0 0 840.7 126.33" style="enable-background:new 0 0 840.7 126.33;" xml:space="preserve">
<style type="text/css">
	.st0{fill-rule:evenodd;clip-rule:evenodd;fill:#607280;}
	.st1{fill:#607280;}
	.st2{font-family:'OpenSans';}
	.st3{font-size:112px;}
</style>
<path class="st0" d="M27.21,61.2c0.51,0.27,0.95,0.5,1.38,0.74c5.12,2.89,10.28,5.73,15.35,8.71c1.49,0.87,2.23,0.71,3.26-0.72
	c10.6-14.6,22.52-27.98,36.68-39.26c4.03-3.21,8.23-6.17,12.67-8.78c0.68-0.4,1.46-1.26,2.25-0.18c0.72,0.98-0.22,1.47-0.76,1.97
	C78.1,41.82,63.01,63.51,51.15,87.57c-1.26,2.56-1.62,2.56-3.53,0.34c-6.85-8-13.72-15.98-20.58-23.97
	c-0.28-0.33-0.63-0.63-0.81-1.01C25.74,61.9,26.41,61.51,27.21,61.2z"/>
<g>
	<path class="st1" d="M0,95.98v-80.9h19.77v7.2H9.23v66.5h10.54v7.2H0z"/>
	<path class="st1" d="M129.87,15.08v80.9H110.1v-7.2h10.54v-66.5H110.1v-7.2H129.87z"/>
</g>
<text transform="matrix(1 0 0 1 141.4078 95.9768)" class="st1 st2 st3">Calculator</text>
</svg>
